<svg width="640" height="651" viewBox="0 0 640 651" fill="none" xmlns="http://www.w3.org/2000/svg">
<path d="M380.402 10.807C363.594 14.3617 346.785 29.1898 333.582 52.1937C310.121 93.1234 298.441 156.854 300.625 232.721C300.879 242.623 301.285 252.17 301.437 253.897C301.641 256.131 301.59 257.096 301.184 257.096C300.879 257.096 300.625 256.588 300.625 255.928C300.625 251.51 293.973 214.897 290.215 198.342C269.902 109.881 231.359 46.8617 189.16 33.1507C184.844 31.7289 183.117 31.475 177.734 31.2718C173.012 31.0687 170.523 31.2211 167.984 31.8304C158.996 33.9125 151.023 40.4632 146.605 49.4007C131.828 79.2601 146.047 130.397 183.98 183.463C201.703 208.295 223.437 232.823 248.32 256.284C254.312 261.92 260.66 267.811 262.387 269.334C265.434 272.026 266.094 272.838 265.129 272.838C264.875 272.838 260.355 269.741 255.074 265.932C188.5 217.741 126.242 190.369 76.8827 187.577C44.8398 185.799 21.0741 194.737 12.5429 211.799C5.07804 226.729 10.2069 244.096 26.8632 260.651C35.6484 269.385 46.5155 276.698 61.1913 283.807C79.371 292.592 99.2773 298.991 123.398 303.764C141.121 307.268 154.121 308.893 181.289 311.026C190.074 311.686 239.637 311.889 245.68 311.229C248.676 310.924 249.336 310.975 249.336 311.584C249.336 312.092 247.812 312.549 243.648 313.159C233.797 314.682 213.535 318.44 202.668 320.827C124.363 338.041 65.6093 368.51 40.8788 404.869C37.2734 410.151 32.9062 419.088 31.4843 424.166C29.9101 429.6 29.5546 438.131 30.6718 443.159C35.039 462.608 56.1132 473.221 84.8554 470.377C120.555 466.873 165.191 444.327 209.219 407.662C223.793 395.526 230.344 389.432 248.727 370.998C258.832 360.842 266.957 353.073 267.363 353.174C267.871 353.276 266.144 356.119 261.98 361.959C222.93 416.955 199.57 465.045 190.43 509.225C186.316 528.928 185.809 549.545 188.957 564.17C193.324 584.381 203.734 597.534 218.359 601.19C225.266 602.916 235.016 601.494 242.887 597.534C253.652 592.1 264.621 581.537 274.016 567.369C291.281 541.471 303.367 502.369 308.699 455.397C311.035 434.932 311.492 425.284 311.543 395.627C311.543 374.096 311.695 367.241 312.152 367.088C312.914 366.784 313.066 367.291 314.285 374.909C329.062 467.178 362.273 539.592 403.305 568.994C420.875 581.639 438.801 584.737 451.953 577.424C469.219 567.827 475.465 542.994 468.457 511.815C457.793 464.284 419.504 407.967 360.141 352.412C353.793 346.471 350.543 343.069 350.848 342.764C351.152 342.459 354.453 344.491 360.141 348.553C419.352 390.955 474.195 416.397 521.27 423.354C548.844 427.416 572.711 423.912 587.945 413.604C594.445 409.186 600.184 401.366 602.012 394.409C603.18 390.194 603.078 382.729 601.809 377.905C599.473 368.916 594.496 360.994 585.508 352.057C576.266 342.815 566.414 336.01 552.246 329.002C508.219 307.268 442.406 297.416 365.777 301.123C361.105 301.327 359.023 301.276 359.023 300.869C359.023 300.565 360.344 300.159 361.969 300.006C363.543 299.803 370.805 298.635 378.066 297.416C451.953 285.026 509.285 263.241 546.305 233.534C574.336 211.088 587.387 185.037 580.43 165.385C577.84 157.92 571.34 150.963 563.469 147.155C537.418 134.459 494.914 143.498 448.906 171.428C414.172 192.553 377.102 224.596 339.727 265.881C336.02 269.994 336.883 268.116 341.605 261.819C389.035 198.901 418.184 137.354 424.328 87.3343C425.445 78.1429 425.496 62.1468 424.379 54.4789C421.078 31.7797 411.379 17.1039 396.246 11.7718C392.895 10.5531 384.059 10.0453 380.402 10.807Z" fill="#F2E0CF"/>
</svg>
