<?xml version="1.0" standalone="no"?>
<!DOCTYPE svg PUBLIC "-//W3C//DTD SVG 20010904//EN"
 "http://www.w3.org/TR/2001/REC-SVG-20010904/DTD/svg10.dtd">
<svg version="1.0" xmlns="http://www.w3.org/2000/svg"
 width="640.000000pt" height="1280.000000pt" viewBox="0 0 640.000000 1280.000000"
 preserveAspectRatio="xMidYMid meet">
<metadata>
Created by potrace 1.15, written by Peter Selinger 2001-2017
</metadata>
<g transform="translate(0.000000,1280.000000) scale(0.100000,-0.100000)"
fill="#000000" stroke="none">
<path d="M2548 12784 c-33 -17 -35 -44 -13 -116 8 -27 21 -103 30 -170 28
-206 90 -440 137 -516 11 -18 18 -36 15 -39 -12 -11 -149 30 -192 59 -67 45
-134 124 -174 208 -33 69 -36 82 -36 169 0 84 -2 95 -21 107 -18 13 -25 12
-55 -9 -43 -29 -47 -57 -15 -99 13 -18 38 -68 55 -111 16 -43 42 -99 57 -124
43 -74 141 -163 234 -213 46 -25 85 -50 87 -57 6 -17 -58 -27 -138 -20 -47 4
-89 16 -141 40 -83 39 -121 75 -141 132 -10 28 -22 43 -42 50 -24 8 -30 6 -52
-19 -13 -16 -23 -38 -21 -49 3 -21 7 -24 69 -50 19 -8 56 -33 82 -55 67 -58
142 -84 262 -89 55 -3 134 0 175 5 41 5 77 8 79 6 2 -2 -4 -61 -13 -131 -9
-70 -16 -173 -16 -228 0 -137 25 -389 55 -570 14 -82 28 -207 32 -278 7 -146
5 -150 -79 -193 -67 -34 -88 -31 -148 20 -28 24 -78 53 -110 65 -32 12 -86 42
-120 67 -77 59 -245 237 -356 379 -74 95 -334 475 -334 488 0 3 21 10 46 16
67 17 154 64 191 103 44 46 110 173 124 238 6 30 20 70 31 88 26 43 18 76 -23
93 -63 25 -113 -38 -75 -93 27 -38 20 -98 -20 -177 -59 -118 -164 -211 -239
-211 -33 0 -32 8 9 69 103 152 136 434 72 606 -15 38 -26 88 -26 116 0 54 -20
84 -64 95 -39 9 -66 -11 -66 -51 0 -27 9 -43 49 -82 63 -62 82 -120 88 -274 7
-163 -25 -292 -94 -378 -25 -31 -38 -23 -59 42 -23 72 -74 172 -155 305 -74
120 -139 242 -139 260 0 16 -34 32 -69 32 -58 0 -82 -62 -33 -86 91 -45 317
-390 367 -559 14 -45 14 -51 -1 -62 -20 -15 -83 3 -150 42 -121 71 -284 283
-284 369 0 45 -24 70 -59 61 -29 -7 -61 -33 -61 -48 0 -5 21 -35 48 -65 26
-30 73 -87 105 -126 83 -101 152 -171 230 -233 37 -30 65 -58 62 -63 -21 -35
-239 -15 -330 30 -115 57 -255 200 -255 261 0 18 -10 40 -24 54 -22 22 -29 23
-53 14 -34 -13 -63 -38 -63 -54 0 -7 15 -24 33 -38 18 -14 71 -63 117 -109 93
-92 149 -133 225 -165 61 -26 173 -50 278 -59 42 -4 77 -10 77 -14 0 -12 -172
-87 -225 -98 -58 -12 -112 -3 -151 24 -64 46 -81 54 -111 54 -61 0 -85 -62
-32 -87 43 -21 169 -35 269 -31 110 4 157 22 297 113 47 31 89 53 93 48 4 -4
42 -60 85 -123 196 -288 365 -497 603 -745 185 -193 222 -249 202 -309 -16
-48 -45 -64 -163 -85 -56 -10 -119 -26 -141 -35 -21 -9 -52 -16 -68 -16 -67 0
-476 138 -694 233 -77 34 -260 133 -282 152 -1 1 25 36 58 77 33 42 67 92 75
112 21 49 21 361 1 411 -25 60 -83 72 -119 24 -25 -35 -12 -61 46 -90 23 -12
45 -27 49 -33 12 -17 9 -158 -3 -218 -24 -113 -101 -230 -131 -200 -6 6 -14
87 -18 181 -7 155 -10 176 -34 224 -58 119 -286 367 -337 367 -24 0 -49 -38
-49 -72 0 -24 5 -28 38 -33 20 -4 49 -9 64 -11 57 -11 158 -125 220 -249 58
-114 86 -273 58 -326 -15 -28 -26 -24 -82 26 -27 24 -99 73 -160 107 -61 35
-133 82 -159 106 -37 33 -55 43 -76 40 -33 -4 -54 -40 -46 -79 4 -23 12 -26
73 -37 124 -21 278 -107 364 -203 49 -54 56 -78 30 -99 -22 -19 -186 4 -293
42 -200 70 -389 185 -420 256 -11 24 -21 32 -41 32 -38 0 -82 -43 -78 -76 3
-24 10 -28 68 -43 39 -10 89 -33 125 -57 152 -104 327 -166 537 -189 32 -4 61
-11 64 -17 10 -16 -87 -107 -144 -134 -71 -34 -200 -49 -299 -36 -94 13 -129
35 -147 95 -8 27 -71 23 -101 -8 -33 -32 -31 -51 6 -74 48 -30 145 -42 327
-42 182 0 210 5 299 60 27 17 53 31 57 31 19 0 -2 -31 -71 -101 -112 -115
-217 -163 -279 -126 -12 6 -31 18 -42 24 -18 11 -25 9 -51 -13 -17 -14 -31
-34 -31 -44 0 -25 58 -73 79 -65 9 4 64 22 122 41 88 29 118 45 171 88 78 64
155 159 197 243 l31 62 76 -45 c266 -157 714 -322 1069 -394 61 -12 117 -26
126 -31 24 -12 30 -58 13 -98 -36 -85 -186 -220 -309 -277 -190 -88 -637 -190
-917 -209 l-96 -7 -21 73 c-46 161 -84 233 -163 305 -61 57 -116 87 -236 130
-57 20 -119 48 -138 60 -41 28 -61 30 -92 8 -19 -13 -23 -23 -20 -62 4 -55 15
-61 93 -42 43 10 61 10 113 -4 89 -23 202 -77 250 -120 45 -41 140 -212 125
-227 -5 -5 -30 7 -58 27 -161 117 -358 158 -576 119 -128 -22 -163 -37 -167
-69 -8 -64 48 -74 122 -21 27 19 66 40 85 45 54 15 187 12 260 -6 85 -20 218
-84 262 -125 30 -28 32 -32 16 -44 -9 -6 -54 -15 -99 -18 -46 -4 -137 -20
-203 -36 -66 -16 -140 -32 -165 -36 -84 -13 -113 -52 -70 -95 28 -28 50 -25
101 14 78 61 233 106 364 106 70 0 105 -12 105 -35 0 -63 -275 -233 -455 -280
-33 -8 -115 -22 -183 -29 -67 -8 -129 -20 -138 -27 -24 -19 -14 -62 18 -73 20
-7 42 -4 90 13 35 13 132 45 215 71 178 56 285 107 400 190 l83 59 0 -59 c0
-102 -56 -223 -149 -323 -59 -63 -101 -84 -202 -99 -74 -12 -85 -16 -99 -40
-13 -25 -13 -31 0 -55 21 -37 55 -41 89 -10 14 14 67 50 117 81 97 59 191 149
237 228 14 25 38 88 53 142 15 53 31 96 36 96 5 0 16 -17 25 -37 12 -29 14
-65 11 -158 -5 -155 -27 -206 -102 -245 -53 -27 -71 -61 -60 -107 5 -18 13
-23 38 -23 60 0 74 10 92 59 9 25 26 68 37 95 20 45 22 67 22 225 0 147 -3
184 -18 224 -11 26 -17 54 -14 61 7 17 90 36 157 36 111 0 321 51 733 177 284
86 404 115 453 105 16 -3 33 -16 43 -35 9 -16 41 -59 71 -94 l54 -65 -38 -112
c-22 -61 -47 -127 -57 -147 -47 -95 -281 -349 -494 -538 -154 -136 -288 -241
-309 -241 -9 0 -28 25 -47 62 -67 132 -118 172 -297 236 -162 57 -184 60 -211
33 -37 -37 -19 -111 27 -111 9 0 33 10 52 21 104 64 345 -63 394 -208 9 -25
14 -48 12 -50 -2 -3 -30 9 -62 25 -88 44 -158 62 -270 69 -132 8 -247 -10
-352 -53 -46 -19 -105 -39 -132 -45 -39 -8 -49 -15 -54 -35 -4 -14 -1 -37 7
-52 17 -36 53 -33 109 8 142 103 186 123 301 141 105 16 257 -16 340 -73 37
-26 34 -45 -10 -64 -108 -45 -152 -73 -363 -234 -58 -44 -129 -90 -157 -102
-50 -20 -53 -24 -53 -58 0 -84 67 -108 104 -36 58 109 461 416 547 416 25 0
31 -28 19 -90 -15 -80 -63 -150 -172 -256 -74 -71 -115 -101 -168 -126 -52
-24 -72 -39 -77 -57 -7 -29 7 -55 34 -59 59 -9 301 238 392 400 63 111 84 102
89 -35 5 -117 -15 -204 -73 -323 -53 -109 -99 -155 -179 -178 -56 -17 -76 -36
-76 -75 0 -54 88 -84 111 -38 6 12 40 61 75 108 146 198 181 287 192 499 l7
135 42 -63 c52 -78 67 -126 67 -217 -1 -52 -7 -86 -27 -134 -33 -78 -34 -105
-5 -125 56 -39 83 44 76 230 -7 162 -19 191 -153 377 l-35 49 23 27 c12 15 88
85 170 157 189 166 412 390 569 574 129 150 183 204 225 223 31 14 37 5 58
-88 8 -39 30 -100 48 -135 32 -64 32 -66 31 -205 -3 -293 -59 -868 -94 -959
l-9 -24 -77 30 c-147 57 -256 48 -429 -36 -105 -51 -135 -76 -135 -114 0 -35
17 -52 51 -52 30 0 44 14 54 53 19 74 149 132 296 132 77 0 90 -3 127 -28 54
-35 55 -57 4 -57 -87 0 -217 -66 -320 -163 -67 -63 -115 -128 -170 -227 -22
-42 -52 -86 -66 -99 -34 -32 -34 -74 -1 -106 29 -30 49 -31 75 -5 16 16 20 33
20 83 0 48 7 76 29 122 33 69 106 170 156 213 78 70 257 154 279 132 6 -6 -5
-61 -32 -157 -23 -81 -51 -192 -62 -246 -30 -150 -50 -219 -71 -253 -26 -43
-24 -85 4 -112 25 -24 62 -29 73 -11 4 6 11 73 15 148 16 254 44 391 105 519
56 117 98 121 131 13 14 -44 18 -94 18 -231 0 -212 -5 -238 -53 -284 -41 -40
-39 -52 11 -90 36 -27 52 -11 67 67 20 106 25 442 7 514 -20 88 -7 96 67 41
l56 -41 0 -1786 c0 -1660 -9 -3508 -26 -5168 l-7 -693 147 0 146 0 1 2883 c0
2706 10 4410 25 4485 5 24 14 36 38 46 61 26 75 113 21 129 -49 15 -59 22 -69
53 -11 35 -14 1504 -3 1584 4 30 12 62 17 70 15 24 44 -2 52 -47 3 -21 29 -84
57 -139 28 -54 75 -165 105 -245 101 -269 209 -492 346 -710 82 -131 87 -160
30 -170 -79 -13 -239 -105 -283 -163 -14 -18 -38 -61 -55 -97 -16 -35 -43 -81
-61 -103 -49 -61 -39 -136 19 -136 41 0 58 30 69 127 11 100 37 158 97 213 44
40 145 95 163 88 5 -2 -15 -57 -45 -122 -30 -65 -60 -141 -65 -169 -12 -53 -7
-390 5 -419 11 -24 64 -44 85 -31 29 18 25 66 -13 136 -24 46 -36 85 -41 131
-15 136 42 335 118 414 54 56 69 40 81 -83 12 -112 44 -239 104 -400 30 -82
65 -181 77 -220 24 -79 51 -99 100 -77 42 20 34 63 -24 125 -73 78 -123 183
-172 362 -48 178 -50 365 -5 365 28 0 80 -57 127 -136 67 -114 100 -205 108
-296 8 -98 19 -110 69 -82 20 12 38 31 40 42 2 10 -10 42 -27 70 -16 27 -62
114 -101 192 -40 78 -93 167 -117 197 l-45 55 68 -3 c58 -4 86 -12 174 -56 61
-29 123 -68 147 -91 55 -53 132 -208 140 -282 7 -70 18 -90 48 -90 87 0 72 60
-69 277 -90 140 -167 198 -378 288 -49 21 -88 41 -88 46 0 5 26 16 57 25 172
50 452 -43 517 -172 38 -74 73 -101 109 -82 14 7 17 19 15 51 -3 41 -5 43
-113 115 -162 108 -190 119 -320 127 -60 3 -152 2 -203 -3 -81 -8 -100 -14
-138 -41 -25 -17 -50 -31 -57 -31 -35 0 -152 191 -296 480 -161 325 -200 465
-203 727 -1 118 1 145 15 167 10 15 27 26 39 26 12 0 63 -22 114 -49 51 -28
110 -54 131 -60 22 -6 100 -47 174 -92 234 -140 528 -276 769 -355 74 -25 141
-47 147 -49 9 -3 0 -25 -27 -66 -79 -122 -106 -278 -77 -436 9 -48 20 -110 24
-138 7 -45 11 -50 35 -53 84 -10 93 73 17 153 -77 82 -78 251 -2 374 46 73 58
66 59 -31 0 -146 29 -228 119 -338 65 -79 218 -230 234 -230 17 0 61 46 61 64
0 20 -57 66 -83 66 -91 0 -224 150 -262 295 -17 68 -20 201 -4 211 6 3 26 -7
44 -22 195 -168 237 -197 418 -293 65 -35 138 -78 162 -97 51 -38 89 -44 105
-15 31 58 -5 97 -93 103 -100 6 -260 91 -431 228 -103 83 -158 153 -154 194
l3 31 65 -1 c102 -1 270 -80 369 -173 62 -59 77 -66 106 -47 60 39 17 89 -130
152 -118 49 -288 108 -348 119 -57 11 -66 30 -25 55 50 31 134 60 222 78 65
13 94 14 165 5 126 -16 197 -46 252 -104 62 -67 119 -66 119 2 0 37 -37 59
-186 109 -109 36 -128 40 -227 40 -122 0 -233 -20 -314 -56 -65 -28 -73 -29
-73 -8 0 25 155 178 213 210 47 26 64 29 163 32 98 4 117 1 163 -19 60 -25 72
-22 108 31 30 43 29 58 -4 67 -40 9 -225 -13 -337 -42 -213 -53 -310 -139
-370 -325 l-22 -65 -44 2 c-131 4 -609 203 -857 357 -117 72 -174 124 -233
211 -27 40 -62 84 -79 98 -17 14 -31 33 -31 42 0 10 13 45 30 80 43 89 60 96
280 106 96 5 272 13 390 19 305 14 388 34 680 162 74 32 139 57 146 54 6 -2
26 -48 45 -102 57 -166 138 -253 311 -334 88 -41 153 -51 176 -28 7 7 12 27
12 45 0 47 -36 63 -86 40 -69 -33 -133 -13 -227 73 -59 53 -144 167 -133 177
3 3 27 -8 53 -25 65 -42 166 -86 233 -103 68 -17 287 -17 350 1 50 13 60 23
60 61 0 56 -65 69 -100 19 -49 -69 -267 -76 -387 -12 -50 26 -201 149 -202
165 -1 4 29 7 67 7 141 0 394 55 546 120 50 21 117 43 149 50 42 8 62 18 73
36 15 22 15 26 1 48 -30 45 -88 39 -144 -17 -40 -40 -173 -107 -296 -149 -110
-37 -265 -49 -381 -28 l-70 13 64 61 c104 98 272 176 380 176 46 0 60 4 78 23
26 27 28 59 6 81 -23 24 -56 19 -100 -14 -21 -17 -100 -59 -175 -94 -75 -34
-164 -80 -198 -101 -34 -20 -64 -35 -67 -32 -10 10 36 239 55 275 25 48 100
134 177 204 83 75 111 92 147 90 59 -5 99 47 61 79 -27 22 -196 25 -251 4 -55
-21 -113 -12 -210 34 -62 30 -163 116 -163 140 0 14 8 13 105 -13 74 -20 192
-21 282 -1 187 39 403 150 403 205 0 18 -53 70 -70 70 -15 0 -50 -52 -60 -89
-26 -97 -290 -177 -499 -152 -88 11 -161 33 -161 50 0 15 23 28 80 46 106 34
274 129 368 208 24 20 59 39 78 43 20 4 38 13 41 20 10 27 -8 84 -32 100 -33
22 -61 4 -75 -46 -6 -21 -23 -54 -38 -71 -54 -65 -280 -194 -385 -220 -56 -14
-97 -1 -97 29 0 29 69 128 144 209 130 140 260 236 379 282 57 22 23 101 -44
101 -20 0 -35 -12 -65 -52 -21 -29 -105 -113 -187 -188 -134 -123 -181 -172
-243 -256 -18 -24 -25 -27 -40 -18 -28 17 -37 69 -31 199 5 132 27 218 79 318
36 67 98 127 132 127 34 0 50 23 39 57 -11 34 -48 53 -85 46 -22 -4 -30 -13
-38 -43 -5 -20 -29 -66 -52 -101 -63 -98 -96 -179 -114 -281 -20 -116 -15
-304 9 -361 14 -33 14 -39 2 -43 -8 -3 -29 3 -48 15 -76 47 -150 200 -151 314
-1 65 0 69 32 95 49 41 45 81 -13 138 -34 33 -45 51 -45 74 0 19 -6 33 -16 37
-26 10 -82 -24 -107 -65 -34 -52 -89 -99 -134 -112 -60 -16 -143 -22 -208 -13
-85 12 -80 32 15 61 190 59 233 89 318 222 30 47 70 105 89 129 55 73 37 141
-38 141 -30 0 -39 -19 -39 -87 0 -138 -141 -305 -297 -353 -59 -18 -193 -28
-193 -15 0 3 30 40 66 83 96 112 116 153 194 393 38 119 77 222 85 229 17 14
20 53 5 80 -11 20 -77 46 -88 35 -4 -4 -8 -50 -8 -103 -1 -69 -9 -127 -28
-201 -50 -196 -113 -314 -232 -439 -56 -59 -64 -64 -80 -51 -14 12 -16 27 -11
114 9 149 54 298 109 363 32 37 35 67 12 100 -18 27 -65 29 -89 5 -13 -12 -15
-25 -10 -52 11 -56 8 -88 -19 -170 -14 -42 -34 -116 -46 -166 -27 -118 -38
-145 -61 -145 -19 0 -62 53 -119 147 -92 152 -123 390 -61 473 11 16 21 40 21
54 0 46 -59 81 -89 52 -13 -14 -16 -37 -14 -137 6 -306 69 -480 225 -622 43
-39 76 -72 75 -74 -8 -7 -175 19 -214 33 -48 18 -138 109 -160 163 -10 23 -13
49 -8 77 5 35 2 47 -14 63 -52 52 -120 26 -101 -39 12 -42 172 -250 213 -278
53 -35 125 -59 202 -67 39 -4 76 -12 83 -17 42 -34 -43 -292 -202 -613 -128
-257 -200 -375 -243 -394 -15 -7 -58 -33 -94 -58 -80 -54 -113 -62 -254 -63
l-111 0 -56 93 c-31 50 -65 119 -76 152 -48 143 -74 397 -74 722 0 240 10 329
40 356 9 9 61 23 114 31 113 18 163 36 236 84 71 46 121 108 189 231 31 57 67
117 80 132 42 49 18 139 -36 139 -29 0 -39 -19 -56 -119 -20 -116 -42 -176
-89 -239 -47 -64 -88 -95 -189 -141 -158 -73 -179 -62 -83 40 78 82 129 177
156 291 22 91 43 299 38 368 l-3 45 -43 3 c-57 4 -61 -11 -28 -101 62 -170 2
-409 -140 -555 -94 -97 -99 -93 -101 103 -5 385 -6 403 -31 421 -21 14 -25 14
-47 0 -45 -30 -48 -50 -14 -104 68 -110 80 -399 20 -492 -26 -39 -110 62 -152
183 -38 110 -57 236 -69 451 -10 199 -16 215 -62 190z m2106 -1111 c3 -10 12
-79 21 -153 23 -206 30 -232 82 -301 26 -34 68 -77 95 -97 26 -20 48 -43 48
-51 0 -58 -532 -460 -765 -578 -118 -60 -175 -79 -270 -92 -48 -7 -95 -23
-152 -52 l-82 -41 -33 20 c-18 12 -53 41 -77 66 l-44 44 61 114 c33 62 92 174
132 248 84 156 171 342 228 485 39 98 102 286 102 304 0 6 4 21 9 35 l10 24
78 -30 c153 -60 313 -49 457 32 80 45 92 47 100 23z m369 -690 c118 -161 207
-218 363 -233 53 -5 98 -11 101 -14 11 -10 -11 -48 -78 -137 -114 -150 -135
-201 -153 -377 -8 -68 -17 -126 -20 -130 -24 -24 -96 100 -116 200 -13 69 -6
168 16 210 8 16 36 39 63 53 58 29 68 50 45 99 -24 50 -41 52 -80 11 -60 -64
-100 -241 -84 -370 11 -87 20 -111 72 -198 22 -37 38 -70 35 -73 -13 -13 -204
-90 -337 -135 -202 -70 -339 -92 -539 -87 -154 3 -157 4 -211 35 -30 17 -97
43 -149 58 -132 37 -136 40 -171 153 -17 53 -30 104 -30 113 0 30 184 160 409
288 237 136 449 287 680 485 68 58 128 106 133 106 4 0 27 -26 51 -57z m-1981
-2016 c3 -161 7 -484 7 -719 l1 -428 -64 0 c-88 0 -113 11 -125 55 -5 20 -8
50 -5 68 56 436 62 504 74 839 14 392 21 458 57 493 15 15 17 15 32 0 14 -13
17 -59 23 -308z m-10 -1204 c13 -12 15 -19 7 -29 -17 -21 -79 13 -79 44 0 18
46 8 72 -15z"/>
</g>
</svg>
