<svg width="48" height="49" viewBox="0 0 48 49" fill="none" xmlns="http://www.w3.org/2000/svg">
<g id="&#240;&#159;&#166;&#134; icon &#34;facebook icon&#34;">
<path id="Vector" d="M47.998 24.501C47.998 11.2444 37.2535 0.5 23.999 0.5C10.7444 0.5 0 11.2444 0 24.501C0 36.4775 8.77636 46.4059 20.2488 48.206V31.4373H14.1566V24.499H20.2488V19.2128C20.2488 13.1965 23.833 9.87439 29.3132 9.87439C31.9393 9.87439 34.6854 10.3424 34.6854 10.3424V16.2487H31.6613C28.6812 16.2487 27.7512 18.0987 27.7512 19.9968V24.501H34.4074L33.3434 31.4393H27.7512V48.208C39.2236 46.4079 48 36.4795 48 24.501H47.998Z" fill="#F2E0CF"/>
</g>
</svg>
