<svg width="40" height="41" viewBox="0 0 40 41" fill="none" xmlns="http://www.w3.org/2000/svg">
<g id="&#240;&#159;&#166;&#134; icon &#34;facebook icon&#34;">
<path id="Vector" d="M39.9983 20.5008C39.9983 9.45371 31.0446 0.5 19.9992 0.5C8.95371 0.5 0 9.45371 0 20.5008C0 30.4812 7.31364 38.7549 16.874 40.255V26.2811H11.7972V20.4992H16.874V16.094C16.874 11.0804 19.8608 8.31199 24.4277 8.31199C26.6161 8.31199 28.9045 8.70201 28.9045 8.70201V13.6239H26.3844C23.901 13.6239 23.126 15.1656 23.126 16.7473V20.5008H28.6729L27.7862 26.2827H23.126V40.2567C32.6864 38.7566 40 30.4829 40 20.5008H39.9983Z" fill="#F2E0CF"/>
</g>
</svg>
