<svg width="48" height="49" viewBox="0 0 48 49" fill="none" xmlns="http://www.w3.org/2000/svg">
<g id="&#240;&#159;&#166;&#134; icon &#34;instagram fill icon&#34;">
<path id="Vector" fill-rule="evenodd" clip-rule="evenodd" d="M14.1053 0.644C16.6653 0.526662 17.4813 0.5 24 0.5C30.5199 0.5 31.3346 0.527993 33.8932 0.644C36.4492 0.760007 38.1947 1.16668 39.7213 1.76C41.3225 2.36286 42.773 3.30743 43.9719 4.52801C45.1927 5.72676 46.1374 7.17737 46.74 8.77867C47.3332 10.3053 47.7386 12.0507 47.856 14.6053C47.9734 17.1653 48 17.9813 48 24.5C48 31.0186 47.9721 31.8346 47.856 34.3948C47.7399 36.9492 47.3332 38.6947 46.74 40.2213C46.1267 41.7988 45.3052 43.1386 43.9719 44.4719C42.7732 45.6927 41.3225 46.6374 39.7213 47.24C38.1947 47.8332 36.4492 48.2386 33.8948 48.356C31.3346 48.4734 30.5186 48.5 24 48.5C17.4813 48.5 16.6653 48.4721 14.1053 48.356C11.5507 48.2399 9.80533 47.8332 8.27867 47.24C6.70132 46.6267 5.36134 45.8052 4.02801 44.4719C2.80721 43.2732 1.86257 41.8225 1.26 40.2213C0.666676 38.6947 0.261338 36.9492 0.144 34.3948C0.0266618 31.8346 0 31.0199 0 24.5C0 17.98 0.0279927 17.1653 0.144 14.6067C0.260007 12.0507 0.666676 10.3053 1.26 8.77867C1.86286 7.17748 2.80743 5.72694 4.02801 4.52801C5.22674 3.30721 6.67735 2.36257 8.27867 1.76C9.80533 1.16668 11.5507 0.761338 14.1053 0.644ZM33.6986 4.964C31.1679 4.84932 30.408 4.82399 24 4.82399C17.592 4.82399 16.832 4.84932 14.3013 4.964C11.9613 5.07067 10.6907 5.46132 9.84532 5.79067C8.72533 6.22533 7.92532 6.74532 7.08532 7.58532C6.24668 8.42532 5.72533 9.22533 5.29067 10.3453C4.96132 11.1907 4.57067 12.4613 4.464 14.8013C4.34932 17.332 4.32399 18.092 4.32399 24.5C4.32399 30.908 4.34932 31.6679 4.464 34.1986C4.57067 36.5386 4.96132 37.8093 5.29067 38.6548C5.67515 39.6972 6.28841 40.6402 7.08532 41.4148C7.85965 42.2116 8.80279 42.8249 9.84532 43.2093C10.6907 43.5388 11.9613 43.9293 14.3013 44.036C16.832 44.1508 17.5907 44.1761 24 44.1761C30.4093 44.1761 31.1679 44.1508 33.6986 44.036C36.0386 43.9293 37.3093 43.5388 38.1548 43.2093C39.2747 42.7747 40.0748 42.2548 40.9148 41.4148C41.7116 40.6404 42.3249 39.6972 42.7093 38.6548C43.0388 37.8093 43.4293 36.5386 43.536 34.1986C43.6508 31.6679 43.6761 30.908 43.6761 24.5C43.6761 18.092 43.6508 17.332 43.536 14.8013C43.4293 12.4613 43.0388 11.1907 42.7093 10.3453C42.2747 9.22533 41.7548 8.42532 40.9148 7.58532C40.0748 6.74668 39.2747 6.22533 38.1548 5.79067C37.3093 5.46132 36.0386 5.07067 33.6986 4.964ZM20.9356 31.8983C21.9072 32.3009 22.9484 32.5079 24 32.5079C26.124 32.5079 28.1607 31.6642 29.6625 30.1625C31.1644 28.6607 32.0081 26.6238 32.0081 24.5C32.0081 22.3762 31.1644 20.3393 29.6625 18.8375C28.1607 17.3357 26.124 16.492 24 16.492C22.9484 16.492 21.9072 16.6991 20.9356 17.1016C19.9639 17.504 19.0812 18.0939 18.3375 18.8375C17.5939 19.5811 17.0041 20.4639 16.6016 21.4354C16.1992 22.407 15.9921 23.4484 15.9921 24.5C15.9921 25.5516 16.1992 26.593 16.6016 27.5646C17.0041 28.5361 17.5939 29.4189 18.3375 30.1625C19.0812 30.906 19.9639 31.496 20.9356 31.8983ZM15.2772 15.7771C17.5906 13.4637 20.7284 12.164 24 12.164C27.2719 12.164 30.4095 13.4637 32.7229 15.7771C35.0363 18.0906 36.336 21.2284 36.336 24.5C36.336 27.7716 35.0363 30.9093 32.7229 33.2229C30.4095 35.5363 27.2719 36.836 24 36.836C20.7284 36.836 17.5906 35.5363 15.2772 33.2229C12.9638 30.9093 11.6641 27.7716 11.6641 24.5C11.6641 21.2284 12.9638 18.0906 15.2772 15.7771ZM39.0713 14.0019C39.6181 13.455 39.9253 12.7134 39.9253 11.94C39.9253 11.1666 39.6181 10.4249 39.0713 9.87807C38.5244 9.33121 37.7828 9.02399 37.0093 9.02399C36.2361 9.02399 35.4943 9.33121 34.9475 9.87807C34.4005 10.4249 34.0933 11.1666 34.0933 11.94C34.0933 12.7134 34.4005 13.455 34.9475 14.0019C35.4943 14.5488 36.2361 14.856 37.0093 14.856C37.7828 14.856 38.5244 14.5488 39.0713 14.0019Z" fill="#F2E0CF"/>
</g>
</svg>
