<svg width="40" height="41" viewBox="0 0 40 41" fill="none" xmlns="http://www.w3.org/2000/svg">
<g id="&#240;&#159;&#166;&#134; icon &#34;instagram fill icon&#34;">
<path id="Vector" fill-rule="evenodd" clip-rule="evenodd" d="M11.7544 0.62C13.8878 0.522218 14.5678 0.5 20 0.5C25.4333 0.5 26.1122 0.523327 28.2444 0.62C30.3744 0.716673 31.8289 1.05556 33.1011 1.55C34.4355 2.05238 35.6442 2.83953 36.6433 3.85667C37.6605 4.85564 38.4478 6.06447 38.95 7.39889C39.4444 8.67111 39.7822 10.1256 39.88 12.2544C39.9778 14.3878 40 15.0678 40 20.5C40 25.9322 39.9767 26.6122 39.88 28.7456C39.7833 30.8744 39.4444 32.3289 38.95 33.6011C38.4389 34.9156 37.7544 36.0322 36.6433 37.1433C35.6444 38.1605 34.4355 38.9478 33.1011 39.45C31.8289 39.9444 30.3744 40.2822 28.2456 40.38C26.1122 40.4778 25.4322 40.5 20 40.5C14.5678 40.5 13.8878 40.4767 11.7544 40.38C9.62556 40.2833 8.17111 39.9444 6.89889 39.45C5.58444 38.9389 4.46778 38.2544 3.35667 37.1433C2.33935 36.1444 1.55215 34.9355 1.05 33.6011C0.555564 32.3289 0.217782 30.8744 0.12 28.7456C0.0222182 26.6122 0 25.9333 0 20.5C0 15.0667 0.0233272 14.3878 0.12 12.2556C0.216673 10.1256 0.555564 8.67111 1.05 7.39889C1.55238 6.06456 2.33953 4.85578 3.35667 3.85667C4.35562 2.83935 5.56446 2.05215 6.89889 1.55C8.17111 1.05556 9.62556 0.717782 11.7544 0.62ZM28.0822 4.22C25.9733 4.12444 25.34 4.10333 20 4.10333C14.66 4.10333 14.0267 4.12444 11.9178 4.22C9.96778 4.30889 8.90889 4.63444 8.20444 4.90889C7.27111 5.27111 6.60444 5.70444 5.90444 6.40444C5.20556 7.10444 4.77111 7.77111 4.40889 8.70444C4.13444 9.40889 3.80889 10.4678 3.72 12.4178C3.62444 14.5267 3.60333 15.16 3.60333 20.5C3.60333 25.84 3.62444 26.4733 3.72 28.5822C3.80889 30.5322 4.13444 31.5911 4.40889 32.2956C4.72929 33.1644 5.24035 33.9502 5.90444 34.5956C6.54971 35.2596 7.33566 35.7707 8.20444 36.0911C8.90889 36.3656 9.96778 36.6911 11.9178 36.78C14.0267 36.8756 14.6589 36.8967 20 36.8967C25.3411 36.8967 25.9733 36.8756 28.0822 36.78C30.0322 36.6911 31.0911 36.3656 31.7956 36.0911C32.7289 35.7289 33.3956 35.2956 34.0956 34.5956C34.7596 33.9504 35.2707 33.1644 35.5911 32.2956C35.8656 31.5911 36.1911 30.5322 36.28 28.5822C36.3756 26.4733 36.3967 25.84 36.3967 20.5C36.3967 15.16 36.3756 14.5267 36.28 12.4178C36.1911 10.4678 35.8656 9.40889 35.5911 8.70444C35.2289 7.77111 34.7956 7.10444 34.0956 6.40444C33.3956 5.70556 32.7289 5.27111 31.7956 4.90889C31.0911 4.63444 30.0322 4.30889 28.0822 4.22ZM17.4464 26.6653C18.256 27.0007 19.1236 27.1733 20 27.1733C21.77 27.1733 23.4673 26.4702 24.7187 25.2187C25.9704 23.9673 26.6735 22.2698 26.6735 20.5C26.6735 18.7302 25.9704 17.0327 24.7187 15.7812C23.4673 14.5297 21.77 13.8267 20 13.8267C19.1236 13.8267 18.256 13.9993 17.4464 14.3346C16.6365 14.67 15.901 15.1615 15.2813 15.7812C14.6616 16.4009 14.1701 17.1365 13.8347 17.9462C13.4993 18.7558 13.3267 19.6236 13.3267 20.5C13.3267 21.3764 13.4993 22.2442 13.8347 23.0538C14.1701 23.8635 14.6616 24.5991 15.2813 25.2187C15.901 25.8384 16.6365 26.33 17.4464 26.6653ZM12.731 13.2309C14.6589 11.3031 17.2736 10.22 20 10.22C22.7265 10.22 25.3413 11.3031 27.2691 13.2309C29.1969 15.1588 30.28 17.7736 30.28 20.5C30.28 23.2264 29.1969 25.8411 27.2691 27.7691C25.3413 29.6969 22.7265 30.78 20 30.78C17.2736 30.78 14.6589 29.6969 12.731 27.7691C10.8031 25.8411 9.72006 23.2264 9.72006 20.5C9.72006 17.7736 10.8031 15.1588 12.731 13.2309ZM32.5595 11.7516C33.0151 11.2959 33.2711 10.6778 33.2711 10.0333C33.2711 9.38884 33.0151 8.77076 32.5595 8.31505C32.1036 7.85935 31.4856 7.60333 30.8411 7.60333C30.1967 7.60333 29.5785 7.85935 29.1229 8.31505C28.6671 8.77076 28.4111 9.38884 28.4111 10.0333C28.4111 10.6778 28.6671 11.2959 29.1229 11.7516C29.5785 12.2073 30.1967 12.4633 30.8411 12.4633C31.4856 12.4633 32.1036 12.2073 32.5595 11.7516Z" fill="#F2E0CF"/>
</g>
</svg>
