<svg xmlns="http://www.w3.org/2000/svg" viewBox="0 0 48 48" id="Sparkles-1--Streamline-Freehand.svg" height="48" width="48"><desc>Sparkles 1 Streamline Icon: https://streamlinehq.com</desc><g><path d="M31.2 34.22a14.76 14.76 0 0 0 -1.48 -5.16l-0.66 -1.48c-0.96 -2.14 -0.48 -2.14 -0.26 -2.36 0.8 -0.82 1.8 -1.6 2.48 -2.44 0.38 -0.5 0.78 -1 1.14 -1.52s0.48 -0.74 0.7 -1.12l0.68 -1.64a2.66 2.66 0 0 0 -1.54 -3.64c-1.9 -0.84 -5.56 -0.3 -7.14 -0.34 -2.56 0 -2.16 -0.34 -2.68 -1.8 -0.5 -1.12 -0.96 -2.28 -1.56 -3.38a11.16 11.16 0 0 0 -1.5 -2.14l-0.82 -0.76A2.48 2.48 0 0 0 16 5.82a4 4 0 0 0 -1.66 1.68l-0.96 1.7L12.14 12l-0.86 2 -4 0.14 -2.74 0.22 -1.8 0.42C0.9 15.54 0.48 16.68 0.72 18c0.38 2 3.28 4.62 4.56 5.68l1.64 1.48a4.52 4.52 0 0 1 0.62 0.76c0.54 0.94 0 0 -0.56 2.98 -0.32 1.38 -1.18 2.7 -1.56 4a5.28 5.28 0 0 0 -0.2 2.3 6.74 6.74 0 0 0 0.58 2 2.88 2.88 0 0 0 1.16 1.28 4.18 4.18 0 0 0 2.98 0 20.92 20.92 0 0 0 5.08 -2.34l1.46 -1.16s0.66 -0.34 0.96 -0.6l1.42 1a22.88 22.88 0 0 0 6.16 2.42 6.5 6.5 0 0 0 4.98 -0.76 3.22 3.22 0 0 0 1.2 -2.82Zm-2.58 0.94a4.16 4.16 0 0 1 -3.18 0.36A20.36 20.36 0 0 1 20 33.36c-0.48 -0.26 -1.06 -0.84 -1.6 -1.18a3.32 3.32 0 0 0 -0.74 -0.32 1.4 1.4 0 0 0 -1.02 0.12 12.66 12.66 0 0 0 -1.52 1.26l-1.38 1.14a19.1 19.1 0 0 1 -3.1 1.62 9.8 9.8 0 0 1 -2.22 0.72l-0.46 0a1.1 1.1 0 0 1 -0.44 -0.72 4.6 4.6 0 0 1 -0.32 -1.16 3.48 3.48 0 0 1 0 -1.44c0.38 -1.4 1.2 -2.78 1.5 -4.18 0 -0.4 0.6 -1.3 0.78 -2a2 2 0 0 0 0 -1.06 5.36 5.36 0 0 0 -0.56 -1.3 4.9 4.9 0 0 0 -0.76 -0.86l-1.76 -1.54a16.7 16.7 0 0 1 -3.86 -4 1.64 1.64 0 0 1 -0.26 -1.28 1.64 1.64 0 0 1 1 -0.8L4.74 16l2.64 -0.24c0.1 0 4.88 0.46 5.18 -1.4l0.74 -1.76 1.34 -2.64 0.92 -1.58c0.34 -0.5 0.62 -0.96 1 -1.1s0.62 0 1.08 0.46l0.6 0.58a9.56 9.56 0 0 1 1.24 1.68c0.56 1.08 0.96 2.2 1.42 3.3 0.12 0.32 0.26 1 0.46 1.54a2.52 2.52 0 0 0 0.58 0.92 2.1 2.1 0 0 0 0.9 0.38 15.46 15.46 0 0 0 2.22 0.12 30.66 30.66 0 0 1 5.68 0.1c0.52 0 1 0.24 1.16 0.62a1.26 1.26 0 0 1 0 0.84l-0.54 1.22 -1.7 2.3c-0.64 0.78 -1.6 1.48 -2.36 2.24a6.62 6.62 0 0 0 -1.08 1.34 1.68 1.68 0 0 0 0 1.4 17.5 17.5 0 0 0 0.92 2l0.64 1.48a18.9 18.9 0 0 1 1.14 3.12 4.32 4.32 0 0 1 0.14 1.4 0.82 0.82 0 0 1 -0.44 0.84Z" fill="#B48954" fill-rule="evenodd" stroke-width="1"></path><path d="M26.54 4.44c0.64 0.16 1.28 0.32 2 0.44 0.14 0.7 0.34 1.36 0.5 2a0.66 0.66 0 0 0 0.72 0.62 0.66 0.66 0 0 0 0.64 -0.7c0 -0.66 0.16 -1.3 0.22 -2 0.74 0 1.44 -0.28 2.18 -0.38a0.66 0.66 0 0 0 0.62 -0.42 0.68 0.68 0 0 0 -0.62 -0.72 21.78 21.78 0 0 0 -2.22 -0.44C30.34 2 30.1 1.34 30 0.6a0.6 0.6 0 0 0 -0.58 -0.6 0.58 0.58 0 0 0 -0.6 0.6 17.82 17.82 0 0 0 -0.46 2.24l-1.72 0.4a0.58 0.58 0 0 0 -0.62 0.58 0.6 0.6 0 0 0 0.52 0.62Z" fill="#B48954" fill-rule="evenodd" stroke-width="1"></path><path d="M46.72 23.74c-0.7 -0.18 -1.4 -0.36 -2.12 -0.48v-0.24c-0.12 -0.94 -0.34 -1.82 -0.52 -2.74a0.6 0.6 0 0 0 -0.6 -0.58 0.58 0.58 0 0 0 -0.6 0.6c-0.16 0.92 -0.36 1.8 -0.46 2.72v0.12h-0.26c-0.84 0.12 -1.6 0.34 -2.44 0.52a0.6 0.6 0 1 0 0 1.2c0.82 0.14 1.58 0.36 2.4 0.46h0.28c0 0.9 0.24 1.78 0.34 2.7a0.7 0.7 0 0 0 0.66 0.7 0.68 0.68 0 0 0 0.7 -0.66c0.16 -0.92 0.34 -1.8 0.44 -2.74 0.68 0 1.34 -0.18 2 -0.22a0.7 0.7 0 0 0 0.74 -0.62 0.64 0.64 0 0 0 -0.56 -0.74Z" fill="#B48954" fill-rule="evenodd" stroke-width="1"></path><path d="M35.7 42.88c-0.8 0 -1.58 -0.22 -2.38 -0.28a0.56 0.56 0 0 0 0 -0.18c-0.14 -0.9 -0.38 -1.72 -0.6 -2.62a0.6 0.6 0 1 0 -1.18 0c-0.12 0.88 -0.32 1.72 -0.38 2.62v0.16a17.06 17.06 0 0 0 -2.54 0.68 0.6 0.6 0 0 0 -0.62 0.74 0.6 0.6 0 0 0 0.68 0.52c0.84 0 1.6 0.22 2.44 0.28 0.12 0.88 0.32 1.7 0.48 2.56a0.68 0.68 0 0 0 1.36 0c0 -0.86 0.22 -1.7 0.28 -2.58 0.82 -0.1 1.6 -0.28 2.42 -0.46a0.68 0.68 0 0 0 0 -1.36Z" fill="#B48954" fill-rule="evenodd" stroke-width="1"></path></g></svg>